<svg width="100" height="100" viewBox="0 0 100 100" fill="none" xmlns="http://www.w3.org/2000/svg">
<rect x="8" y="4" width="80" height="4" fill="#08181E"/>
<rect x="8" y="8" width="80" height="4" fill="#B0B0B0"/>
<rect x="8" width="84" height="4" fill="#FDFCFF"/>
<rect x="8" y="96" width="84" height="4" fill="#FDFCFF"/>
<rect x="4" y="8" width="84" height="4" transform="rotate(90 4 8)" fill="#FDFCFF"/>
<rect x="100" y="8" width="80" height="4" transform="rotate(90 100 8)" fill="#FDFCFF"/>
<rect width="4" height="8" transform="matrix(4.37114e-08 -1 -1 -4.37114e-08 8 8)" fill="#FDFCFF"/>
<rect width="4" height="8" transform="matrix(4.37114e-08 -1 -1 -4.37114e-08 100 8)" fill="#FDFCFF"/>
<rect width="4" height="8" transform="matrix(4.37114e-08 -1 -1 -4.37114e-08 8 96)" fill="#FDFCFF"/>
<rect width="4" height="8" transform="matrix(1 0 0 -1 4 8)" fill="#FDFCFF"/>
<rect width="4" height="8" transform="matrix(1 0 0 -1 92 8)" fill="#FDFCFF"/>
<rect width="4" height="8" transform="matrix(1 0 0 -1 4 100)" fill="#FDFCFF"/>
<rect x="8" y="92" width="80" height="4" fill="#B0B0B0"/>
<rect x="8" y="88" width="4" height="4" transform="rotate(90 8 88)" fill="#B0B0B0"/>
<rect width="8" height="8" transform="matrix(4.37114e-08 -1 -1 -4.37114e-08 100 96)" fill="#FDFCFF"/>
<rect width="8" height="8" transform="matrix(1 0 0 -1 88 100)" fill="#FDFCFF"/>
<rect x="92" y="88" width="4" height="4" transform="rotate(90 92 88)" fill="#B0B0B0"/>
<rect x="92" y="4" width="4" height="4" transform="rotate(90 92 4)" fill="#B0B0B0"/>
<rect x="12" y="8" width="80" height="4" transform="rotate(90 12 8)" fill="#B0B0B0"/>
<rect x="96" y="8" width="80" height="4" transform="rotate(90 96 8)" fill="#B0B0B0"/>
<rect x="8" y="88" width="80" height="4" fill="#08181E"/>
<rect x="8" y="8" width="80" height="4" transform="rotate(90 8 8)" fill="#08181E"/>
<rect x="92" y="8" width="80" height="4" transform="rotate(90 92 8)" fill="#08181E"/>
</svg>
