<svg width="245" height="56" viewBox="0 0 245 56" fill="none" xmlns="http://www.w3.org/2000/svg">
<path d="M209 16V12H205V8H201V4H197V0H99.5H0V56H245V48H241V44H237V40H233V36H229V32H225V28H221V24H217V20H213V16H209Z" fill="#070D0F"/>
<path d="M209.18 20V16H205.27V12H201.36V8H197.45V4H104.59H0V28H217V24H213.09V20H209.18Z" fill="#28383E"/>
<path d="M221 32V28H217V24H164.5H108.5H52.5H0V36H218H223H225V32H221Z" fill="#17262C"/>
<path d="M229.244 36H0V52H241V48H237.081V44H233.163V40H229.244V36Z" fill="#08181E"/>
</svg>
